<svg xmlns="http://www.w3.org/2000/svg" width="170" height="87" viewBox="0 0 170 87">
  <g id="Union_2" data-name="Union 2" fill="none">
    <path d="M76.917,72.737H0V14.262H76.917L85,0l8.083,14.262H170V72.737H93.083L85,87Z" stroke="none"/>
    <path d="M 84.99971771240234 82.94353485107422 L 91.91738891601562 70.73725128173828 L 168 70.73725128173828 L 168 16.26211357116699 L 91.91706848144531 16.26211357116699 L 84.99966430664062 4.056356906890869 L 78.08229827880859 16.26211357116699 L 2 16.26211357116699 L 2 70.73725128173828 L 78.08258819580078 70.73725128173828 L 84.99971771240234 82.94353485107422 M 84.99965667724609 87 L 76.91716003417969 72.73725128173828 L 0 72.73725128173828 L 0 14.26211357116699 L 76.91690826416016 14.26211357116699 L 84.99965667724609 0 L 93.08245086669922 14.26211357116699 L 170 14.26211357116699 L 170 72.73725128173828 L 93.08277130126953 72.73725128173828 L 84.99965667724609 87 Z" stroke="none" fill="#cbbba0"/>
  </g>
</svg>
